<?xml version="1.0" standalone="no"?>
<!DOCTYPE svg PUBLIC "-//W3C//DTD SVG 1.1//EN" "http://www.w3.org/Graphics/SVG/1.1/DTD/svg11.dtd" >
<svg xmlns="http://www.w3.org/2000/svg">
<metadata>
This is a custom SVG webfont generated by Font Squirrel.
Copyright   : Copyright c 19901997 ParaGraph
</metadata>
<defs>
<font id="MagistralBlackCRegular" horiz-adv-x="997" >
<font-face units-per-em="2048" ascent="1661" descent="-387" />
<missing-glyph horiz-adv-x="477" />
<glyph unicode=" "  horiz-adv-x="477" />
<glyph unicode="&#x09;" horiz-adv-x="477" />
<glyph unicode="&#xa0;" horiz-adv-x="477" />
<glyph unicode="!" horiz-adv-x="671" d="M102 1434h467l-41 -940h-385zM135 0v373h402v-373h-402z" />
<glyph unicode="&#x22;" horiz-adv-x="1071" d="M102 1434h381l-24 -666h-332zM588 1434h381l-25 -666h-332z" />
<glyph unicode="#" horiz-adv-x="1849" d="M61 381l72 184h301l131 322h-301l76 184h299l147 363h226l-146 -363h396l145 363h225l-143 -363h299l-74 -184h-301l-129 -322h299l-74 -184h-299l-153 -381h-228l154 381h-395l-156 -381h-225l153 381h-299zM659 565h398l131 322h-397z" />
<glyph unicode="$" horiz-adv-x="1581" d="M102 1047q0 176 76 270q43 55 106.5 82.5t101.5 31t106 3.5h204v147h197v-147h508v-357h-688q-68 0 -97 -4q-47 -8 -47 -51q0 -53 111 -80l479 -108q170 -39 242 -123q78 -94 78 -326q0 -205 -84 -293q-16 -16 -32.5 -29.5t-37.5 -22.5l-37 -16q-16 -7 -40.5 -11.5 t-38 -7.5t-41 -4t-36.5 -1h-38h-33h-168v-147h-197v147h-555v356h746q74 0 94 11q31 14 31 43q0 57 -90 79l-523 123q-154 37 -231 164q-66 103 -66 271z" />
<glyph unicode="%" horiz-adv-x="1675" d="M102 1098q0 186 84 270q78 78 246 78q166 0 244 -78q84 -84 84 -270q0 -184 -84 -269q-78 -78 -244 -77q-168 0 -246 77q-84 85 -84 269zM283 1098q0 -94 26 -135q35 -45 123 -45t121 45q27 41 27 135q0 104 -27 137q-33 45 -121 45t-123 -45q-26 -33 -26 -137zM317 0 l832 1434h213l-832 -1434h-213zM915 336q0 184 84 270q47 49 102.5 62.5t141.5 13.5q88 0 143.5 -13.5t102.5 -62.5q84 -86 84 -270q0 -186 -84 -270q-78 -78 -246 -78q-166 0 -244 78q-84 84 -84 270zM1096 336q0 -98 26 -137q33 -45 121 -45t123 45q27 39 27 137 q0 100 -27 135q-31 45 -123 45q-90 0 -121 -45q-26 -35 -26 -135z" />
<glyph unicode="&#x26;" horiz-adv-x="1708" d="M102 391q0 160 56 238q63 88 172 92v4q-90 16 -150 82q-74 84 -74 237q0 209 93 302q39 39 105.5 60t113.5 24.5t121 3.5h915v-357h-709q-111 0 -137 -14q-47 -23 -47 -84q0 -70 55 -88q25 -10 125 -10h947v-312h-187v-155q0 -236 -100 -330q-92 -84 -344 -84h-539 q-68 0 -109.5 4t-110.5 33t-116 84q-80 92 -80 270zM557 463q0 -61 39 -88q27 -18 106 -19h232q72 0 88 19q16 16 16 65v129h-358h-12h-14q-5 0 -12 -1t-13 -3t-13.5 -5t-14.5 -8t-15 -13q-29 -31 -29 -76z" />
<glyph unicode="'" horiz-adv-x="589" d="M102 1434h385l-26 -666h-332z" />
<glyph unicode="(" horiz-adv-x="841" d="M102 352v412q0 172 21 262q33 137 117 227q82 86 222 145.5t318 51.5v-266q-113 8 -206 -37t-136 -113q-49 -80 -49 -243v-467q0 -162 49 -242q41 -66 135.5 -112t206.5 -40v-266q-332 -20 -540 201q-90 94 -119 235q-19 92 -19 252z" />
<glyph unicode=")" horiz-adv-x="841" d="M61 -70q113 -6 207 40t135 112q49 80 50 242v467q0 164 -50 243q-43 68 -136 113t-206 37v266q178 8 318.5 -51.5t222.5 -145.5q84 -90 117 -227q20 -90 20 -262v-412q0 -160 -18 -252q-29 -141 -119 -235q-209 -221 -541 -201v266z" />
<glyph unicode="*" horiz-adv-x="1003" d="M61 1151l97 166l245 -143v286h197v-286l246 143l96 -166l-248 -141l246 -144l-98 -170l-242 140v-281h-197v281l-241 -140l-99 170l246 144z" />
<glyph unicode="+" horiz-adv-x="1447" d="M102 506v266h484v481h278v-481h482v-266h-482v-481h-278v481h-484z" />
<glyph unicode="," horiz-adv-x="731" d="M0 -145l313 524l316 -189l-346 -503z" />
<glyph unicode="-" d="M61 387v324h875v-324h-875z" />
<glyph unicode="." horiz-adv-x="610" d="M102 0v369h406v-369h-406z" />
<glyph unicode="/" horiz-adv-x="1060" d="M-20 -348l897 1864h204l-897 -1864h-204z" />
<glyph unicode="0" horiz-adv-x="1400" d="M61 565v293q0 360 152 490q55 47 149.5 71.5t159 27.5t179 3t179 -3t159 -27.5t149.5 -71.5q152 -129 151 -490v-293q0 -408 -161 -516q-57 -39 -167 -52t-310.5 -13t-310 13t-167.5 52q-162 108 -162 516zM524 596q0 -158 35 -199q39 -45 141.5 -45t141.5 45 q35 41 35 199v274q0 121 -41 166q-43 45 -135.5 45t-135.5 -45q-41 -45 -41 -166v-274z" />
<glyph unicode="1" horiz-adv-x="825" d="M0 1077v357h494q102 0 161 -54q68 -61 68 -180v-1200h-463v958q0 72 -18 95q-20 25 -68 24h-174z" />
<glyph unicode="2" horiz-adv-x="1386" d="M61 264q0 211 125 279l605 319q72 37 71 123q0 49 -24 74q-29 29 -121 28h-572v347h863q152 0 237 -95q80 -86 80 -295q0 -137 -27.5 -225t-70.5 -132t-119 -81l-434 -215q-20 -10 -21 -20q0 -8 15 -9h630v-362h-1034q-104 0 -153.5 76.5t-49.5 187.5z" />
<glyph unicode="3" horiz-adv-x="1411" d="M61 0v356h568q162 0 194 17q51 25 51 92q0 74 -51 96q-25 10 -106 10h-621v316h596q92 0 123 31q27 27 27 75q0 51 -29 76t-117 25h-618v340h878q59 0 98.5 -5.5t93.5 -32t93 -77.5q68 -90 68 -254t-66 -238q-59 -70 -166 -82v-6q111 0 185 -61q88 -74 88 -266 q0 -115 -20.5 -187.5t-88.5 -134.5q-100 -90 -270 -90h-910z" />
<glyph unicode="4" horiz-adv-x="1574" d="M20 483q0 115 29 176.5t82 110.5l653 588q106 92 277 92q143 0 209 -66q27 -27 38 -58.5t12 -46.5t1 -60v-648h213v-376h-213v-195h-463v195h-643q-96 0 -143 67q-6 6 -16.5 25.5t-23 74.5t-12.5 121zM463 590q0 -18 26 -19h369v359q0 8 -8 8q-2 0 -27 -20l-346 -308 q-14 -14 -14 -20z" />
<glyph unicode="5" horiz-adv-x="1396" d="M61 860v344q0 106 54 164q66 66 190 66h993v-349h-686q-55 0 -73 -20q-14 -14 -15 -53v-23q0 -49 29 -74q23 -20 76 -20h381q164 0 252 -111q35 -43 52 -98t19 -94t2 -111q0 -80 -3 -129t-27.5 -131t-71.5 -129q-94 -92 -332 -92h-819v356h627q102 0 131 37q20 27 20 80 q0 45 -22 70q-31 33 -111 32h-371q-150 0 -204 37q-91 62 -91 248z" />
<glyph unicode="6" horiz-adv-x="1396" d="M61 401v654q0 199 123 295q111 84 289 84h789v-357h-600q-86 0 -113 -20q-25 -20 -25 -74v-96h443q178 0 260 -70q109 -92 108 -336q0 -225 -59 -331q-84 -150 -320 -150h-538q-145 0 -242 82q-115 94 -115 319zM524 459q0 -68 35 -90q23 -12 72 -13h127q49 0 71 21 q31 25 31 78q0 63 -29 92q-25 25 -104 24h-203v-112z" />
<glyph unicode="7" horiz-adv-x="1234" d="M-20 1085v349h1087q188 0 188 -199q0 -121 -59 -213l-647 -1022h-512l686 1026q20 35 20 39q0 20 -51 20h-712z" />
<glyph unicode="8" horiz-adv-x="1409" d="M61 389q0 203 89 279q59 49 157 63v4q-72 8 -125 58q-88 80 -88 241q0 217 92 305q31 29 77 48.5t80 28.5t99.5 13.5t80.5 4.5h77h209h16q299 0 398 -95q92 -88 92 -305q0 -162 -88 -241q-53 -49 -125 -58v-4q98 -14 158 -63q88 -76 88 -279q0 -172 -62 -254 q-35 -47 -81 -76.5t-109.5 -41t-109.5 -14.5t-130 -3h-303q-84 0 -130 3t-109.5 14.5t-109.5 41t-81 76.5q-62 82 -62 254zM537 471q0 -53 24 -82q31 -33 98 -33h91q68 0 98 33q25 29 24.5 82t-36.5 80q-27 18 -95 18h-73q-68 0 -95 -18q-36 -27 -36 -80zM569 971 q0 -49 19 -68q20 -23 76 -22h81q55 0 76 22q18 18 19 68q0 63 -27 84q-29 23 -88 22h-41q-59 0 -88 -22q-27 -21 -27 -84z" />
<glyph unicode="9" horiz-adv-x="1388" d="M61 979q0 86 3.5 130t27 111.5t70.5 114.5q98 98 289 99h450q121 0 211 -29t152 -121q63 -94 63 -242v-567q0 -193 -47 -289q-31 -63 -78 -105t-104.5 -57.5t-94 -19.5t-90.5 -4h-807v356h652q57 0 82 21q25 23 24 67v93h-491q-147 0 -232 98q-37 45 -56 112.5 t-21.5 109.5t-2.5 122zM537 963q0 -59 36 -89q25 -18 99 -18h192v143q0 31 -18 54q-25 25 -64 24h-116q-57 0 -88 -22q-41 -29 -41 -92z" />
<glyph unicode=":" horiz-adv-x="610" d="M102 0v369h406v-369h-406zM102 717v368h406v-368h-406z" />
<glyph unicode=";" horiz-adv-x="735" d="M0 -145l313 524l316 -189l-346 -503zM231 729v356h402v-356h-402z" />
<glyph unicode="&#x3c;" horiz-adv-x="1452" d="M102 993l1248 635v-250l-785 -385l785 -385v-250z" />
<glyph unicode="=" horiz-adv-x="1449" d="M102 309v266h1246v-266h-1246zM102 727v266h1246v-266h-1246z" />
<glyph unicode="&#x3e;" horiz-adv-x="1452" d="M102 358v250l785 385l-785 385v250l1248 -635z" />
<glyph unicode="?" horiz-adv-x="1044" d="M20 1077v357h642q55 0 86.5 -3.5t87 -28t90.5 -71.5q57 -80 57 -237q0 -135 -43 -217t-135 -144l-103 -69q-45 -33 -69 -76q-18 -37 -19 -60v-34h-401v71q0 84 41 144q27 37 113 96l63 43q59 41 76.5 68.5t17.5 76.5q0 55 -35 72q-25 12 -102 12h-367zM213 0v373h401 v-373h-401z" />
<glyph unicode="@" horiz-adv-x="2017" d="M102 582q0 219 19.5 354t91.5 242q55 84 135 140t173 79.5t167 32t164 8.5h360q463 0 619 -301q84 -164 84 -516q0 -309 -60 -439q-84 -180 -294 -180q-102 0 -183.5 45t-103.5 135q-102 -180 -334 -180q-260 0 -360 176q-66 117 -66 338q0 223 57 342 q49 100 146.5 155.5t218.5 55.5h283h16h18h18q13 0 18 -1t17.5 -3t18.5 -4t16.5 -5t17.5 -7.5t15 -10.5t15 -12q37 -39 36 -145v-486q0 -84 37 -128t97 -44q74 0 112 68q25 45 32 111.5t7 205.5q0 100 -1 147.5t-18.5 139.5t-52.5 156q-66 119 -169 156.5t-242 37.5h-377 q-82 0 -139.5 -6t-136 -29.5t-135 -81t-89.5 -147.5q-43 -117 -43 -449q0 -297 47 -452q29 -90 81 -148.5t124 -84t131.5 -34t136.5 -8.5h570v-192h-621q-377 0 -540 237q-78 115 -106 285.5t-28 446.5zM780 526q0 -147 25 -200q37 -82 137 -82q96 0 158 67q74 78 74 213 v238q0 31 -19 49q-18 16 -65 16h-80q-113 0 -170 -63q-60 -68 -60 -238z" />
<glyph unicode="A" horiz-adv-x="1593" d="M-61 0l530 1276q39 90 106.5 132t221.5 42q59 0 100 -5t87 -21.5t81 -53.5t59 -94l531 -1276h-488l-112 295h-516l-113 -295h-487zM649 623h295l-129 362q-12 31 -18 31t-19 -31z" />
<glyph unicode="B" horiz-adv-x="1587" d="M102 227v975q0 104 50 160q61 72 161 72h779q221 0 311 -95q90 -92 90 -307q0 -145 -72 -223q-59 -66 -143 -72v-8q100 -8 170 -74q35 -35 53.5 -82t21.5 -80.5t3 -91.5q0 -68 -2 -102.5t-22.5 -95t-61.5 -103.5q-43 -47 -100.5 -70.5t-99.5 -26.5t-122 -3h-749 q-39 0 -53.5 1t-50.5 6t-61.5 20.5t-47.5 40.5q-54 63 -54 159zM565 463q0 -66 17 -86q18 -20 86 -21h245q100 0 123 29q27 31 27 84q0 37 -19 61q-31 41 -118 41h-361v-108zM565 883h344q86 0 111 39q14 27 14 65q0 35 -22 62q-29 29 -105 28h-264q-41 0 -59.5 -16.5 t-18.5 -61.5v-116z" />
<glyph unicode="C" horiz-adv-x="1320" d="M61 698q0 197 27 328t98 221q145 186 502 187h606v-357h-383q-76 0 -109.5 -2t-83.5 -11t-81 -33.5t-53 -65.5q-47 -82 -47 -258q0 -168 34 -238q29 -53 88.5 -78.5t109.5 -30t151 -4.5h397v-356h-635q-180 0 -294 37t-195 139q-132 162 -132 522z" />
<glyph unicode="D" horiz-adv-x="1593" d="M102 213v963q0 131 48 186q61 72 172 72h653q125 0 239.5 -45.5t188.5 -128.5q72 -84 100.5 -211t28.5 -324q0 -393 -111 -545q-57 -80 -163.5 -130t-247.5 -50h-672q-113 0 -170 53q-66 60 -66 160zM565 465q0 -63 21 -84q25 -25 76 -25h63q201 0 268 82q63 70 64 291 q0 213 -96 299q-70 61 -261 62h-34q-49 0 -72 -17q-29 -23 -29 -80v-528z" />
<glyph unicode="E" horiz-adv-x="1415" d="M102 229v983q0 106 61.5 164t174.5 58h1030v-349h-709q-49 0 -71 -20q-23 -18 -23 -70v-108h783v-312h-783v-155q0 -37 21 -53q20 -18 88 -19h700v-348h-1032q-115 0 -174 49q-31 27 -46.5 58.5t-17.5 55t-2 66.5z" />
<glyph unicode="F" horiz-adv-x="1425" d="M102 0v1192q0 117 66 180q63 61 186 62h1067v-349h-768q-45 0 -65 -20q-23 -23 -23 -76v-100h625v-324h-625v-565h-463z" />
<glyph unicode="G" horiz-adv-x="1556" d="M61 709q0 219 40 377.5t165 248.5q133 98 361 99h835v-340h-626q-172 0 -248 -119q-51 -84 -51 -258t53 -262q63 -98 201 -99h139q53 0 78 23q25 25 24 84v295h463v-543q0 -109 -70 -166q-59 -49 -153 -49h-678q-94 0 -194.5 31.5t-166.5 89.5q-172 152 -172 588z" />
<glyph unicode="H" horiz-adv-x="1650" d="M102 0v1434h463v-508h520v508h463v-1434h-463v569h-520v-569h-463z" />
<glyph unicode="I" horiz-adv-x="667" d="M102 0v1434h463v-1434h-463z" />
<glyph unicode="J" horiz-adv-x="1048" d="M-41 0v356h207q156 0 227 58q41 33 62.5 86t24.5 88t3 96v750h463v-906q0 -246 -131 -378q-150 -150 -387 -150h-469z" />
<glyph unicode="K" horiz-adv-x="1624" d="M102 0v1434h463v-1434h-463zM631 735q0 96 45 158l385 541h549l-498 -592q-43 -51 -43 -103q0 -70 59 -133l558 -606h-558l-434 555q-63 80 -63 180z" />
<glyph unicode="L" horiz-adv-x="1363" d="M102 184v1250h463v-990q0 -49 23 -69q20 -18 74 -19h743v-356h-1083q-102 0 -156 45q-64 51 -64 139z" />
<glyph unicode="M" horiz-adv-x="2193" d="M102 0v1198q0 252 353 252q57 0 100 -6t98.5 -27.5t98.5 -73t69 -131.5l232 -696q4 -16 18 -40.5t24.5 -24.5t25 24.5t18.5 40.5l231 696q27 80 70 131.5t98 73t99 27.5t102 6q352 0 352 -252v-1198h-467l16 872q0 47 -18 48q-12 0 -29 -52l-221 -692q-20 -63 -41.5 -99 t-80 -64.5t-154.5 -28.5q-137 0 -191.5 48t-85.5 144l-221 692q-16 51 -29 52q-16 0 -16 -48l14 -872h-465z" />
<glyph unicode="N" horiz-adv-x="1769" d="M102 0v1196q0 131 91.5 192.5t230.5 61.5q209 0 303 -133l522 -737q25 -35 39 -35q23 0 23 35v854h356v-1194q0 -25 -3 -47.5t-20.5 -63.5t-48 -70.5t-92 -52t-147.5 -22.5q-100 0 -175 27.5t-137 113.5l-518 731q-25 35 -39 35q-29 0 -28 -41v-850h-357z" />
<glyph unicode="O" horiz-adv-x="1699" d="M61 717q0 127 6.5 211t45.5 196.5t110.5 178t188 100.5t207 41t231.5 6t231 -6t207 -41t188.5 -100.5t110.5 -178t45 -196.5t6 -211q0 -125 -6 -209t-45 -196.5t-110 -180.5q-70 -66 -189 -100.5t-209 -40.5t-229 -6t-229.5 6t-209 41t-188.5 100q-72 68 -110.5 180.5 t-45 196.5t-6.5 209zM537 717q0 -190 53 -273q43 -66 101.5 -85t158.5 -19q102 0 158.5 19.5t101.5 84.5q37 53 45 109.5t8 163.5q0 82 -1 113.5t-13 75.5t-39 83q-45 66 -101.5 85.5t-158.5 19.5t-159.5 -19.5t-100.5 -85.5q-35 -51 -44 -109.5t-9 -162.5z" />
<glyph unicode="P" horiz-adv-x="1611" d="M102 0v1163q0 131 58 197q66 74 190 74h793q209 0 301 -101q106 -113 106 -391q0 -340 -129 -450q-92 -78 -252 -78h-604v-414h-463zM565 770h332h16h18h16q11 0 17.5 1t16.5 2t15 3t14.5 5t15.5 6.5t12 8.5l13 11q37 41 36 125q0 78 -40 112q-39 33 -146 33h-256 q-80 0 -80 -84v-223z" />
<glyph unicode="Q" horiz-adv-x="1730" d="M61 717q0 127 6.5 211t45.5 196.5t110.5 178t188 100.5t207 41t231.5 6t231 -6t207 -41t189 -100q162 -147 161 -547q0 -272 -71 -408v-8l159 16v-356h-876q-479 0 -627 131q-72 61 -110.5 178t-45 202t-6.5 206zM537 725q0 -190 53 -272q43 -66 101.5 -85.5t158.5 -19.5 q102 0 158.5 19.5t101.5 85.5q37 53 45 109t8 163q0 82 -1 113.5t-13 75.5t-39 83q-45 66 -101.5 85.5t-158.5 19.5t-159.5 -19.5t-100.5 -85.5q-35 -51 -44 -109.5t-9 -162.5z" />
<glyph unicode="R" horiz-adv-x="1615" d="M102 0v1159q0 143 56 205q61 70 192 70h780q68 0 112 -4.5t116 -38t115 -97.5q74 -111 73 -327q0 -225 -53 -353q-74 -178 -266 -178h-62v-8l410 -428h-557l-277 373q-2 2 -17 22.5l-18.5 25.5l-15.5 22.5t-16 24.5t-12.5 23.5t-10.5 25.5l-5 24q-3 14 -3 26v31 q0 72 58.5 117t148.5 45h74q92 0 129 43q31 39 30 119q0 86 -34 120q-33 35 -129 35h-256q-49 0 -72 -22q-27 -25 -27 -90v-965h-463z" />
<glyph unicode="S" horiz-adv-x="1437" d="M41 1057q0 197 90 287t246 90h946v-357h-729q-59 0 -76 -8q-23 -12 -22 -39q0 -47 120 -78l484 -129q133 -35 198 -100q98 -96 99 -328q0 -193 -70 -284q-39 -51 -93 -77t-92 -30t-104 -4h-983v356h795q80 0 80 45q0 31 -23.5 45.5t-68.5 26.5l-555 156q-104 29 -164 108 q-78 105 -78 320z" />
<glyph unicode="T" horiz-adv-x="1445" d="M-20 1077v357h1486v-357h-512v-1077h-462v1077h-512z" />
<glyph unicode="U" horiz-adv-x="1626" d="M102 573v861h463v-824q0 -143 72 -202q63 -51 176 -51.5t176 51.5q72 59 72 202v824h463v-861q0 -281 -150 -428q-100 -98 -236.5 -129.5t-324.5 -31.5t-324.5 31.5t-236.5 129.5q-150 147 -150 428z" />
<glyph unicode="V" horiz-adv-x="1593" d="M-61 1434h495l336 -973q10 -31 26.5 -31t26.5 31l336 973h496l-498 -1219q-45 -111 -125 -171t-235.5 -60t-235.5 60t-125 171z" />
<glyph unicode="W" horiz-adv-x="2351" d="M-61 1434h471l237 -865q12 -43 27 -43q6 0 13 13.5t9 21.5l215 733q45 156 264.5 156t264.5 -156l215 -733q2 -8 9 -21.5t13 -13.5q14 0 27 43l238 865h471l-351 -1153q-53 -176 -130 -236.5t-222 -60.5q-154 0 -224.5 60t-107.5 187l-182 623q-14 37 -20.5 37t-20.5 -37 l-182 -623q-37 -127 -107.5 -187t-224.5 -60q-145 0 -222 60t-130 237z" />
<glyph unicode="X" horiz-adv-x="1503" d="M-61 0l542 727l-526 707h553l244 -383l243 383h553l-526 -707l543 -727h-553l-260 403l-260 -403h-553z" />
<glyph unicode="Y" horiz-adv-x="1581" d="M-61 1434h495l357 -619l356 619h495l-620 -1037v-397h-463v397z" />
<glyph unicode="Z" horiz-adv-x="1382" d="M4 188q0 160 139 293l570 543q23 23 22.5 31t-11.5 15t-26 7h-630v357h1112q199 0 198 -191q0 -66 -19.5 -117t-40 -76.5t-61.5 -64.5l-608 -579q-2 -2 -9 -7.5t-9 -9.5t-2 -10q0 -23 24 -23h711v-356h-1102q-37 0 -58.5 1t-64.5 10t-68.5 27.5t-46 57.5t-20.5 92z" />
<glyph unicode="[" horiz-adv-x="841" d="M102 -336v1786h678v-266h-391v-1254h391v-266h-678z" />
<glyph unicode="\" horiz-adv-x="1060" d="M-20 1516h204l897 -1864h-204z" />
<glyph unicode="]" horiz-adv-x="841" d="M61 -70h392v1254h-392v266h678v-1786h-678v266z" />
<glyph unicode="^" horiz-adv-x="1253" d="M102 1202l396 301q57 43 128.5 43t129.5 -43l395 -301l-139 -168l-307 240q-39 31 -74 31t-74 -31l-309 -240z" />
<glyph unicode="_" horiz-adv-x="1130" d="M61 0v324h1008v-324h-1008z" />
<glyph unicode="`" horiz-adv-x="694" d="M61 1491l179 223l393 -325l-178 -222z" />
<glyph unicode="a" horiz-adv-x="1261" d="M37 362q0 203 94 275q61 47 193 47h475v16q0 45 -21 72q-33 43 -123 43h-544v270h718q174 0 269 -94q102 -100 102 -305v-455q0 -119 -53 -174q-55 -57 -184 -57h-639q-137 0 -199 57q-88 80 -88 305zM438 356q0 -31 17 -47q20 -18 55 -18h209q43 0 59 14q20 16 21 53v68 h-285q-39 0 -59 -18q-17 -17 -17 -52z" />
<glyph unicode="b" horiz-adv-x="1251" d="M61 197v1237h402v-349h291q78 0 132 -7t131 -49t124 -120q74 -119 73 -364q0 -244 -71 -365q-106 -180 -383 -180h-477q-115 0 -174 63q-48 50 -48 134zM463 389q0 -59 20 -80q20 -18 72 -18h82q102 0 139 74q29 61 29 184q0 111 -27 170q-37 84 -133 84h-182v-414z" />
<glyph unicode="c" horiz-adv-x="1128" d="M37 528q0 152 22.5 259.5t98.5 185.5q106 113 327 112h584v-274h-397q-164 0 -207 -131q-18 -55 -19 -143q0 -129 33 -189q45 -74 203 -74h12h398v-274h-627q-223 0 -332 129q-57 68 -76.5 162t-19.5 237z" />
<glyph unicode="d" horiz-adv-x="1249" d="M37 569q0 250 80 363q109 154 360 153h309v349h402v-1205q0 -106 -35 -155q-49 -74 -186 -74h-539q-256 0 -342 209q-49 116 -49 360zM438 547q0 -135 29 -189q41 -80 143 -79h97q43 0 59 16q20 18 20 74v438h-176q-84 0 -129 -66q-43 -61 -43 -194z" />
<glyph unicode="e" horiz-adv-x="1239" d="M37 530v64v64q0 15 1 56.5t3 57.5l6 50q4 34 11 51l17 41q9 24 21.5 42.5t28.5 34.5q68 70 190.5 88.5t321.5 18.5q193 0 291 -13.5t157 -60.5q117 -94 117 -365q0 -145 -65 -198q-37 -31 -107 -31h-592q-1 -8 0 -16q0 -43 19 -72q16 -27 51 -38t54.5 -12t74.5 -1h526 v-291h-686q-63 0 -95 1t-83 8t-82 21.5t-65.5 42t-59.5 68.5q-55 92 -55 389zM438 684h297q66 0 66 57q0 59 -74 74q-43 8 -106 8q-106 0 -140 -18q-44 -24 -43 -101q-1 -10 0 -20z" />
<glyph unicode="f" horiz-adv-x="882" d="M8 799v286h162q8 186 147 279q131 86 522 86h35v-250q-217 -2 -258 -26q-46 -27 -45 -77v-12h303v-286h-303v-799h-401v799h-162z" />
<glyph unicode="g" horiz-adv-x="1253" d="M37 547q0 156 24.5 247t85.5 160q61 72 139.5 101.5t205.5 29.5h446q133 0 190 -49q63 -53 64 -164v-751q0 -240 -86 -346q-113 -143 -385 -144h-608v263h483q109 0 147 28q37 31 48 78h-347q-72 0 -118.5 6t-106 39t-98.5 92q-84 131 -84 410zM446 532q0 -135 46 -186 q25 -27 62.5 -40t56 -14t65.5 -1h115v418q0 49 -31 69q-23 16 -64 17h-45q-115 0 -162 -60q-43 -53 -43 -203z" />
<glyph unicode="h" horiz-adv-x="1280" d="M61 0v1434h402v-349h239q90 0 130 -2t112 -20.5t125 -56.5q150 -111 150 -297v-709h-402v553q0 123 -61 186q-59 63 -166 64h-127v-803h-402z" />
<glyph unicode="i" horiz-adv-x="524" d="M61 0v1085h402v-1085h-402zM61 1194v240h402v-240h-402z" />
<glyph unicode="j" horiz-adv-x="688" d="M-82 -90h29q69 0 108 8q47 10 88 43q82 66 82 207v917h402v-1001q0 -252 -158 -354q-76 -49 -202 -66q-101 -13 -264 -13q-41 0 -85 1v258zM225 1194v240h402v-240h-402z" />
<glyph unicode="k" horiz-adv-x="1300" d="M61 0v1434h402v-1434h-402zM520 563q0 37 11.5 70t20.5 48t34 52l248 352h434l-330 -432q-29 -39 -29 -78q0 -47 41 -98l379 -477h-450l-295 389q-64 84 -64 174z" />
<glyph unicode="l" horiz-adv-x="524" d="M61 0v1434h402v-1434h-402z" />
<glyph unicode="m" horiz-adv-x="1761" d="M61 0v891q0 72 39 121q37 47 86.5 60t128.5 13h932q221 0 338 -108q55 -51 85 -132t30 -161v-684h-402v602q0 109 -43 154q-43 47 -129 47h-45v-803h-401v803h-154q-37 0 -53 -17q-10 -12 -10 -55v-731h-402z" />
<glyph unicode="n" horiz-adv-x="1282" d="M61 0v891q0 90 45 133q61 61 238 61h377q244 0 364 -96q135 -109 136 -321v-668h-402v551q0 129 -45 186q-51 66 -166 66h-71q-37 0 -55.5 -16.5t-18.5 -61.5v-725h-402z" />
<glyph unicode="o" horiz-adv-x="1327" d="M37 542.5q0 315.5 143 444.5q80 70 198 90.5t286 20.5q109 0 179 -5.5t159.5 -31t144.5 -74.5q143 -129 143 -444.5t-143 -444.5q-80 -70 -198 -90t-285 -20q-109 0 -179.5 5t-159.5 30.5t-145 74.5q-143 129 -143 444.5zM446 543q0 -137 39 -191q49 -74 179 -73 q125 0 176 73q41 57 41 191q0 139 -39 194q-53 70 -178 70t-179 -70q-39 -55 -39 -194z" />
<glyph unicode="p" horiz-adv-x="1259" d="M61 -348v1227q0 115 74 168q55 39 154 38h504q205 0 313 -112q117 -121 117 -398q0 -299 -88 -425q-106 -150 -375 -150h-297v-348h-402zM463 291h176q104 0 149 84q25 47 25 170q0 109 -18 157q-37 92 -144 93h-141q-18 0 -32.5 -14.5t-14.5 -37.5v-452z" />
<glyph unicode="q" horiz-adv-x="1259" d="M37 512q0 311 98 440q53 70 134 101.5t153 31.5h557q59 0 109.5 -22.5t74.5 -54.5q35 -47 35 -152v-1204h-401v348h-373q-94 0 -172 40t-125 99q-90 117 -90 373zM446 532q0 -113 23 -157q39 -84 156 -84h172v428q0 45 -25 65q-23 18 -72 19h-47q-137 0 -180 -82 q-27 -50 -27 -189z" />
<glyph unicode="r" horiz-adv-x="858" d="M61 0v629q0 250 129 354q123 102 402 102h266v-282h-139q-143 0 -203 -78q-53 -72 -53 -207v-518h-402z" />
<glyph unicode="s" horiz-adv-x="1130" d="M37 788q0 119 51 195q41 59 99.5 80.5t152.5 21.5h725v-278h-590q-39 0 -47 -2q-18 -4 -18 -19q0 -16 22 -24q27 -8 43.5 -15.5t38.5 -15.5l274 -92q102 -35 159 -65.5t91 -81.5q55 -80 56 -209q0 -160 -90 -232q-66 -51 -179 -51h-776v291h592q12 0 25 8q10 6 10 20 q0 16 -19 25q-8 4 -122 43l-234 76q-170 57 -223 143q-41 67 -41 182z" />
<glyph unicode="t" horiz-adv-x="856" d="M-4 807v278h154v349h401v-349h309v-278h-309v-248q0 -156 70 -217q57 -51 176 -51h59v-291h-233q-225 0 -336 74q-66 45 -101.5 117.5t-35.5 148.5v467h-154z" />
<glyph unicode="u" horiz-adv-x="1298" d="M61 494v591h402v-540q0 -129 39 -187q47 -68 170 -67h73q47 0 70 22q20 20 21 66v706h401v-864q0 -117 -68 -172q-59 -49 -176 -49h-491q-195 0 -303 92q-138 113 -138 402z" />
<glyph unicode="v" horiz-adv-x="1286" d="M-49 1085h418l247 -626q12 -37 26.5 -37t27.5 37l248 626h417l-458 -999q-45 -98 -233.5 -98t-233.5 98z" />
<glyph unicode="w" horiz-adv-x="1847" d="M-49 1085h381l164 -624q8 -33 20 -33q8 0 19 31l159 524q35 115 229.5 115t229.5 -115l160 -524q10 -31 18 -31q12 0 21 33l164 624h380l-247 -880q-31 -106 -90.5 -161.5t-196.5 -55.5q-233 0 -279 157l-143 473q-10 33 -16 33t-17 -33l-143 -473q-45 -158 -279 -157 q-137 0 -196.5 55t-89.5 162z" />
<glyph unicode="x" horiz-adv-x="1236" d="M-49 0l432 557l-397 528h456l176 -278l177 278h456l-397 -528l432 -557h-467l-201 307l-200 -307h-467z" />
<glyph unicode="y" horiz-adv-x="1298" d="M-49 1085h409l285 -688l301 688h402l-650 -1435h-401l170 350z" />
<glyph unicode="z" horiz-adv-x="1105" d="M4 209q0 133 100 211l469 358q16 12 17 19q0 10 -21 10h-526v278h858q25 0 49.5 -5t63.5 -21.5t63.5 -60.5t24.5 -111q0 -143 -98 -217l-455 -348q-16 -12 -17 -23q0 -8 19 -8h532v-291h-901q-88 0 -133 59.5t-45 149.5z" />
<glyph unicode="{" horiz-adv-x="673" d="M20 494v176q51 4 79 42t28 93v182q0 70 6 137q14 205 184 275q129 51 295 43v-266q-98 0 -147 -39q-51 -41 -51 -129v-226q0 -156 -105 -192v-17q104 -37 105 -192v-225q0 -88 51 -129q49 -39 147 -39v-267q-166 -8 -295 43q-170 70 -184 275q-6 68 -6 137v182 q0 55 -28 93.5t-79 42.5z" />
<glyph unicode="|" horiz-adv-x="409" d="M102 -348v1864h205v-1864h-205z" />
<glyph unicode="}" horiz-adv-x="673" d="M61 -12q98 0 148 39q51 41 51 129v225q0 156 105 192v17q-104 37 -105 192v226q0 88 -51 129q-49 39 -148 39v266q166 8 295 -43q170 -70 185 -275q6 -68 6 -137v-182q0 -55 27.5 -93t78.5 -42v-176q-51 -4 -78.5 -42t-27.5 -94v-182q0 -70 -6 -137q-14 -205 -185 -275 q-129 -51 -295 -43v267z" />
<glyph unicode="~" horiz-adv-x="1318" d="M102 817q80 111 181 166q80 45 163 45q74 0 152 -33l113 -47q70 -29 129 -28q88 0 145 51q41 39 68 84l164 -135q-82 -119 -175 -175q-92 -59 -202 -59q-72 0 -160 37l-96 43q-45 23 -125 22q-63 0 -119 -38q-39 -29 -74 -74z" />
<glyph unicode="&#xa9;" horiz-adv-x="1654" d="M102 719q0 104 7.5 178t32 161t77.5 158.5t137 126.5q74 49 157 74t143.5 29t171 4t171 -4t143.5 -28.5t156 -74.5q84 -55 137.5 -126.5t78 -158.5t31.5 -161t7 -178q0 -215 -49 -369.5t-205 -259.5q-102 -68 -209.5 -87t-261 -19t-261 19.5t-210.5 86.5 q-156 104 -205 259t-49 370zM338 719q0 -158 31.5 -268.5t128.5 -174.5q123 -82 329.5 -81.5t329.5 81.5q96 63 128 174t32 269q0 154 -32 266.5t-128 177.5q-115 76 -330 76t-329 -76q-96 -66 -128 -178t-32 -266zM469 725q0 63 2 99t19.5 89.5t52.5 92.5q47 53 99 70.5 t128 17.5h311v-179h-213q-96 0 -131 -59q-18 -33 -18 -131q0 -90 18.5 -125t44 -45t70.5 -10h256v-183h-344q-51 0 -82 3.5t-73 25t-72 62.5q-68 88 -68 272z" />
<glyph unicode="&#xab;" horiz-adv-x="1302" d="M102 575.5q0 92.5 54 159.5l297 387l254 -196l-199 -285q-23 -35 -23 -65.5t23 -65.5l199 -285l-254 -196l-297 387q-54 67 -54 159.5zM668 575.5q0 49.5 61 131.5l209 272l262 -197l-110 -157q-23 -31 -23 -49.5t23 -49.5l110 -157l-262 -197l-209 272q-61 82 -61 131.5 z" />
<glyph unicode="&#xad;" d="M61 387v324h875v-324h-875z" />
<glyph unicode="&#xae;" horiz-adv-x="1093" d="M102 1008q0 223 88 321q104 117 357 117q233 0 336 -98q109 -102 108 -340q0 -231 -100 -336q-63 -68 -146 -88.5t-198 -20.5q-121 0 -210 24.5t-157 110.5q-78 101 -78 310zM240 1012q0 -168 45 -230q68 -92 262 -92q154 0 223 58q84 70 84 252t-59 249q-61 70 -248 70 q-182 0 -248 -70q-59 -63 -59 -237zM317 797v383q0 33 13 45q12 14 104 14h180q80 0 109 -16q47 -29 47 -140q0 -152 -96 -151h-23l127 -135h-176l-78 106q-29 39 -28 70q0 66 53 65h24q29 0 37 6q12 12 13 29v23q0 16 -11 26q-8 10 -47 11h-57q-33 0 -39 -7q-8 -4 -8 -43 v-286h-144z" />
<glyph unicode="&#xbb;" horiz-adv-x="1302" d="M102 369l111 157q23 31 23 49.5t-23 49.5l-111 157l263 197l208 -272q61 -82 61.5 -131.5t-61.5 -131.5l-208 -272zM596 225l199 285q23 35 22.5 65.5t-22.5 65.5l-199 285l254 196l297 -387q53 -68 53 -160t-53 -159l-297 -387z" />
<glyph unicode="&#x2c6;" horiz-adv-x="1253" d="M102 1202l396 301q57 43 128.5 43t129.5 -43l395 -301l-139 -168l-307 240q-39 31 -74 31t-74 -31l-309 -240z" />
<glyph unicode="&#x410;" horiz-adv-x="1634" d="M-41 0l530 1276q39 90 107 132t221 42q59 0 100 -5t87.5 -21.5t81 -53.5t59.5 -94l530 -1276h-487l-113 295h-516l-113 -295h-487zM670 623h295l-129 362q-12 31 -18.5 31t-18.5 -31z" />
<glyph unicode="&#x411;" horiz-adv-x="1605" d="M102 201v1003q0 61 19.5 106.5t44 68t59.5 35.5t56.5 16.5t44.5 3.5h1134v-357h-807q-59 0 -73.5 -19.5t-14.5 -66.5v-102h662q154 0 235.5 -94.5t81.5 -338t-80 -345.5q-84 -111 -233 -111h-928q-88 0 -144.5 56.5t-56.5 144.5zM565 451q0 -37 4 -57.5t22.5 -28t28 -8.5 t44.5 -1h272q78 0 106 27q27 25 27 88q0 59 -31 82q-31 25 -102 25h-371v-127z" />
<glyph unicode="&#x412;" horiz-adv-x="1587" d="M102 227v975q0 104 50 160q61 72 161 72h779q221 0 311 -95q90 -92 90 -307q0 -145 -72 -223q-59 -66 -143 -72v-8q100 -8 170 -74q35 -35 53.5 -82t21.5 -80.5t3 -91.5q0 -68 -2 -102.5t-22.5 -95t-61.5 -103.5q-43 -47 -100.5 -70.5t-99.5 -26.5t-122 -3h-749 q-39 0 -53.5 1t-50.5 6t-61.5 20.5t-47.5 40.5q-54 63 -54 159zM565 463q0 -66 17 -86q18 -20 86 -21h245q100 0 123 29q27 31 27 84q0 37 -19 61q-31 41 -118 41h-361v-108zM565 883h344q86 0 111 39q14 27 14 65q0 35 -22 62q-29 29 -105 28h-264q-41 0 -59.5 -16.5 t-18.5 -61.5v-116z" />
<glyph unicode="&#x413;" horiz-adv-x="1376" d="M102 0v1171q0 131 58 193q66 70 170 70h1067v-357h-735q-68 0 -84 -20q-12 -16 -13 -72v-985h-463z" />
<glyph unicode="&#x414;" horiz-adv-x="1675" d="M-20 0v356h141l387 932q18 45 44 76t99.5 58.5t186.5 27.5q162 0 231.5 -45t97.5 -117l385 -932h144v-356h-1716zM586 356h504l-230 623q-12 37 -22.5 37t-22.5 -37z" />
<glyph unicode="&#x415;" horiz-adv-x="1415" d="M102 229v983q0 106 61.5 164t174.5 58h1030v-349h-709q-49 0 -71 -20q-23 -18 -23 -70v-108h783v-312h-783v-155q0 -37 21 -53q20 -18 88 -19h700v-348h-1032q-115 0 -174 49q-31 27 -46.5 58.5t-17.5 55t-2 66.5z" />
<glyph unicode="&#x416;" horiz-adv-x="2457" d="M-41 0l469 606q70 92 70 131q0 29 -56 107l-409 590h532l322 -533q66 -109 65 -160q0 -68 -84 -196l-348 -545h-561zM997 0v1434h463v-1434h-463zM1505 741q0 53 66 160l330 533h532l-418 -590q-55 -78 -55 -107q0 -39 70 -131l469 -606h-562l-348 545q-84 128 -84 196z " />
<glyph unicode="&#x417;" horiz-adv-x="1449" d="M82 0v356h643q115 0 145 17q43 27 43 92q0 59 -39 86q-27 18 -147 18h-618v312h608q119 0 147 26q27 25 27 82q0 59 -39 78q-27 10 -129 10h-633v357h795q94 0 142 -3.5t122 -27t119 -70.5q82 -86 82 -295q0 -168 -80 -243q-49 -49 -129 -64v-8q141 6 205 -105 q43 -74 43 -231q0 -236 -123 -324q-25 -18 -61 -30.5t-62.5 -19.5t-74.5 -10t-67 -3h-70h-57h-792z" />
<glyph unicode="&#x418;" horiz-adv-x="1765" d="M102 328v1106h471l-20 -822v-22q0 -49 25 -49q12 0 40 51l396 690q94 168 309 168q94 0 160.5 -26.5t100.5 -62.5t53.5 -91.5t22.5 -91t3 -82.5v-1096h-471l20 842q0 53 -20 53q-10 0 -53 -70l-408 -696q-84 -145 -309 -145q-100 0 -168 27.5t-98.5 80.5t-42 107.5 t-11.5 128.5z" />
<glyph unicode="&#x419;" horiz-adv-x="1765" d="M102 328v1106h471l-20 -822q0 -72 25 -71q12 0 40 51l396 690q94 168 309 168q94 0 160.5 -26.5t100.5 -62.5t53.5 -91.5t22.5 -91t3 -82.5v-1096h-471l20 842q0 53 -20 53q-10 0 -53 -70l-408 -696q-84 -145 -309 -145q-100 0 -168 27.5t-98.5 80.5t-42 107.5 t-11.5 128.5zM344 1819h289q27 -63 74 -101q68 -51 170 -51q109 0 172 51q39 31 71 101h289q-25 -74 -75 -151t-107 -120q-131 -98 -350.5 -98t-350.5 98q-57 43 -107 120t-75 151z" />
<glyph unicode="&#x41a;" horiz-adv-x="1665" d="M143 0v1434h463v-1434h-463zM651 733q0 68 66 160l385 541h549l-498 -592q-59 -72 -59 -107q0 -49 75 -129l557 -606h-557l-434 555q-84 108 -84 178z" />
<glyph unicode="&#x41b;" horiz-adv-x="1597" d="M-61 0l550 1303q63 147 309 147t310 -147l551 -1303h-492l-346 948q-18 35 -22 35t-23 -35l-346 -948h-491z" />
<glyph unicode="&#x41c;" horiz-adv-x="2193" d="M102 0v1198q0 252 353 252q57 0 100 -6t98.5 -27.5t98.5 -73t69 -131.5l232 -696q4 -16 18 -40.5t24.5 -24.5t25 24.5t18.5 40.5l231 696q27 80 70 131.5t98 73t99 27.5t102 6q352 0 352 -252v-1198h-467l16 872q0 47 -18 48q-12 0 -29 -52l-221 -692q-20 -63 -41.5 -99 t-80 -64.5t-154.5 -28.5q-137 0 -191.5 48t-85.5 144l-221 692q-16 51 -29 52q-16 0 -16 -48l14 -872h-465z" />
<glyph unicode="&#x41d;" horiz-adv-x="1650" d="M102 0v1434h463v-508h520v508h463v-1434h-463v569h-520v-569h-463z" />
<glyph unicode="&#x41e;" horiz-adv-x="1699" d="M61 717q0 127 6.5 211t45.5 196.5t110.5 178t188 100.5t207 41t231.5 6t231 -6t207 -41t188.5 -100.5t110.5 -178t45 -196.5t6 -211q0 -125 -6 -209t-45 -196.5t-110 -180.5q-70 -66 -189 -100.5t-209 -40.5t-229 -6t-229.5 6t-209 41t-188.5 100q-72 68 -110.5 180.5 t-45 196.5t-6.5 209zM537 717q0 -190 53 -273q43 -66 101.5 -85t158.5 -19q102 0 158.5 19.5t101.5 84.5q37 53 45 109.5t8 163.5q0 82 -1 113.5t-13 75.5t-39 83q-45 66 -101.5 85.5t-158.5 19.5t-159.5 -19.5t-100.5 -85.5q-35 -51 -44 -109.5t-9 -162.5z" />
<glyph unicode="&#x41f;" horiz-adv-x="1638" d="M102 0v1227q0 90 56 145q23 23 48 37t61 18.5t50.5 5.5t55.5 1h897q78 0 124 -10.5t87 -51.5q55 -55 55 -145v-1227h-463v995q0 53 -20.5 74t-71.5 21h-324q-51 0 -71.5 -20.5t-20.5 -74.5v-995h-463z" />
<glyph unicode="&#x420;" horiz-adv-x="1611" d="M102 0v1163q0 131 58 197q66 74 190 74h793q209 0 301 -101q106 -113 106 -391q0 -340 -129 -450q-92 -78 -252 -78h-604v-414h-463zM565 770h332h16h18h16q11 0 17.5 1t16.5 2t15 3t14.5 5t15.5 6.5t12 8.5l13 11q37 41 36 125q0 78 -40 112q-39 33 -146 33h-256 q-80 0 -80 -84v-223z" />
<glyph unicode="&#x421;" horiz-adv-x="1357" d="M61 698q0 197 27 328t98 221q145 186 502 187h606v-357h-383q-76 0 -109.5 -2t-83.5 -11t-81 -33.5t-53 -65.5q-47 -82 -47 -258q0 -168 34 -238q29 -53 88.5 -78.5t109.5 -30t151 -4.5h397v-356h-635q-180 0 -294 37t-195 139q-132 162 -132 522z" />
<glyph unicode="&#x422;" horiz-adv-x="1445" d="M-20 1077v357h1486v-357h-512v-1077h-462v1077h-512z" />
<glyph unicode="&#x423;" horiz-adv-x="1538" d="M-41 1434h516l299 -611l301 611h504l-772 -1434h-504l229 408z" />
<glyph unicode="&#x424;" horiz-adv-x="2039" d="M61 735q0 285 78 420q59 96 155.5 123t274.5 27h219v129h463v-129h219q178 0 274.5 -27t156.5 -123q78 -135 77 -420q0 -291 -63 -418q-29 -57 -71 -93t-98 -51t-103.5 -19t-114.5 -4h-277v-150h-463v150h-276q-68 0 -115 4t-103 19t-98 51t-71 93q-64 127 -64 418z M537 725q0 -76 16 -119q39 -100 195 -100h40v442h-57q-139 0 -176 -84q-18 -41 -18 -139zM1251 506h41q156 0 195 100q16 43 16 119q0 98 -18 139q-37 84 -176 84h-58v-442z" />
<glyph unicode="&#x425;" horiz-adv-x="1544" d="M-41 0l543 727l-527 707h553l244 -383l244 383h553l-527 -707l543 -727h-553l-260 403l-260 -403h-553z" />
<glyph unicode="&#x426;" horiz-adv-x="1724" d="M102 262v1172h463v-945q0 -88 19 -108q23 -25 94 -25h412v1078h462v-1078h193v-356h-1364q-117 0 -162 25q-23 10 -43 28q-74 68 -74 209z" />
<glyph unicode="&#x427;" horiz-adv-x="1626" d="M82 963v471h463v-357q0 -102 30 -129q27 -25 136 -24h350v510h463v-1434h-463v567h-649q-76 0 -153 36t-122 114q-55 99 -55 246z" />
<glyph unicode="&#x428;" horiz-adv-x="2318" d="M102 215v1219h463v-977q0 -55 17 -78q18 -23 67 -23h279v1078h463v-1078h278q49 0 68 23q16 23 16 78v977h463v-1219q0 -102 -57 -158q-61 -57 -168 -57h-1663q-104 0 -166 57q-60 56 -60 158z" />
<glyph unicode="&#x429;" horiz-adv-x="2387" d="M102 215v1219h463v-977q0 -55 17 -78q18 -23 67 -23h279v1078h463v-1078h362v1078h463v-1078h192v-356h-2080q-104 0 -166 57q-60 56 -60 158z" />
<glyph unicode="&#x42a;" horiz-adv-x="1777" d="M-20 1077v357h516q113 0 178 -70q57 -61 57 -158v-291h643q209 0 287 -163q55 -115 55 -301q0 -209 -67 -312q-37 -53 -110 -96t-177 -43h-889q-84 0 -145 70q-59 70 -60 200v711q0 51 -16 74q-18 23 -53 22h-219zM731 442q0 -47 12 -63q16 -23 76 -23h240q115 0 135 13 q47 27 47 114q0 78 -55 101q-23 8 -119 8h-336v-150z" />
<glyph unicode="&#x42b;" horiz-adv-x="2246" d="M102 270v1164h463v-519h643q209 0 287 -163q55 -115 55 -301q0 -209 -67 -312q-37 -53 -110 -96t-177 -43h-889q-84 0 -145 70q-60 69 -60 200zM565 442q0 -47 13 -63q16 -23 75 -23h240q115 0 135 13q47 27 47 114q0 78 -55 101q-23 8 -119 8h-336v-150zM1681 0v1434 h463v-1434h-463z" />
<glyph unicode="&#x42c;" horiz-adv-x="1611" d="M102 270v1164h463v-519h643q209 0 287 -163q55 -115 55 -301q0 -209 -67 -312q-37 -53 -110 -96t-177 -43h-889q-84 0 -145 70q-60 69 -60 200zM565 442q0 -47 13 -63q16 -23 75 -23h240q115 0 135 13q47 27 47 114q0 78 -55 101q-23 8 -119 8h-336v-150z" />
<glyph unicode="&#x42d;" horiz-adv-x="1396" d="M61 0v356h428q168 0 248 33q127 51 123 180h-751v324h751q-18 94 -104 139t-240 45h-436v357h686q281 0 424 -144q90 -92 117.5 -232t27.5 -329q0 -236 -34.5 -378t-133.5 -228q-139 -123 -401 -123h-705z" />
<glyph unicode="&#x42e;" horiz-adv-x="2394" d="M102 0v1434h463v-541h195q2 111 41 224.5t117 185.5q72 66 189.5 100.5t207.5 40.5t229 6q141 0 231.5 -6t207 -41t188.5 -100.5t110.5 -178t45 -196.5t6.5 -211q0 -125 -6.5 -209t-45 -196.5t-110.5 -180.5q-70 -66 -188.5 -100.5t-209 -40.5t-229.5 -6t-229 6t-209 41 t-188 100q-76 72 -119 196t-43 248h-191v-575h-463zM1231 717q0 -190 53 -273q43 -66 101.5 -85t158.5 -19q102 0 158.5 19.5t101.5 84.5q37 53 45.5 109.5t8.5 163.5q0 82 -1.5 113.5t-13.5 75.5t-39 83q-45 66 -101 85.5t-158.5 19.5t-160 -19.5t-100.5 -85.5 q-35 -51 -44 -109.5t-9 -162.5z" />
<glyph unicode="&#x42f;" horiz-adv-x="1619" d="M41 0l399 422v6h-61q-66 0 -134.5 32t-109.5 105q-63 113 -63 389q0 229 69 340q53 84 133 112t211 28h824q96 0 157 -66q51 -55 52 -168v-1200h-463v983q0 47 -27 72q-23 23 -72 22h-290q-68 0 -103 -43q-29 -39 -28 -112q0 -80 16 -105q33 -61 123 -61h94 q209 0 209 -142v-32q0 -41 -15.5 -80t-28.5 -58.5t-44 -60.5l-291 -383h-557z" />
<glyph unicode="&#x430;" horiz-adv-x="1261" d="M37 362q0 203 94 275q61 47 193 47h475v16q0 45 -21 72q-33 43 -123 43h-544v270h718q174 0 269 -94q102 -100 102 -305v-455q0 -119 -53 -174q-55 -57 -184 -57h-639q-137 0 -199 57q-88 80 -88 305zM438 356q0 -31 17 -47q20 -18 55 -18h209q43 0 59 14q20 16 21 53v68 h-285q-39 0 -59 -18q-17 -17 -17 -52z" />
<glyph unicode="&#x431;" horiz-adv-x="1284" d="M61 449v557q0 162 66 260q55 86 154.5 127t193.5 41h715v-275h-477q-141 0 -195 -43q-59 -49 -55 -133h344q268 0 369 -143q72 -100 71 -332q0 -256 -78 -369q-68 -102 -180 -126.5t-344 -24.5q-86 0 -135 2t-120 10t-115 24.5t-88 48t-70 77.5q-56 92 -56 299zM463 426 q0 -74 55 -117q39 -31 123 -30q88 0 129 24q68 41 68 184q0 115 -23 160q-39 78 -133 78h-219v-299z" />
<glyph unicode="&#x432;" horiz-adv-x="1261" d="M61 199v667q0 115 68 172q57 47 209 47h514q76 0 110.5 -1t95 -18t95.5 -54q66 -68 66 -207q0 -127 -62 -184q-57 -55 -156 -62v-4q100 -8 162 -66q61 -59 62 -186q0 -162 -76 -233q-35 -33 -90 -49.5t-91 -18.5t-110 -2h-530q-154 0 -207 45q-60 50 -60 154zM463 356 q0 -33 12 -47q14 -18 51 -18h191h15q9 0 14.5 -1t13.5 0t14 3t13 7l16 11q20 18 20 47q0 39 -22.5 55.5t-85.5 16.5h-252v-74zM463 680h244q68 0 92 16q23 16 22 58q0 29 -22.5 43t-79.5 14h-174q-37 0 -56 -14q-27 -18 -26 -56v-61z" />
<glyph unicode="&#x433;" horiz-adv-x="1087" d="M61 0v879q0 98 31 141q45 66 137 65h899v-274h-589q-35 0 -56 -25q-20 -20 -20 -71v-715h-402z" />
<glyph unicode="&#x434;" horiz-adv-x="1318" d="M-20 0v291h108l326 686q20 41 49 66.5t65.5 37t64.5 14.5t66.5 3t66.5 -3t64.5 -14.5t65.5 -37t49 -66.5l326 -686h108v-291h-1359zM469 291h381l-172 446q-10 23 -18.5 23t-18.5 -23z" />
<glyph unicode="&#x435;" horiz-adv-x="1239" d="M37 530v64v64q0 15 1 56.5t3 57.5l6 50q4 34 11 51l17 41q9 24 21.5 42.5t28.5 34.5q68 70 190.5 88.5t321.5 18.5q193 0 291 -13.5t157 -60.5q117 -94 117 -365q0 -145 -65 -198q-37 -31 -107 -31h-592q-4 -53 19 -88q16 -27 51 -38t54.5 -12t74.5 -1h526v-291h-686 q-63 0 -95 1t-83 8t-82 21.5t-65.5 42t-59.5 68.5q-55 92 -55 389zM438 684h297q66 0 66 57q0 59 -74 74q-43 8 -106 8q-106 0 -140 -18q-49 -27 -43 -121z" />
<glyph unicode="&#x436;" horiz-adv-x="1921" d="M-41 0l309 457q51 76 51 104q0 8 -4 19.5t-9 19.5l-17 29q-12 20 -21 33l-260 423h441l215 -387q61 -111 61 -147.5t-51 -118.5l-271 -432h-444zM770 0v1085h381v-1085h-381zM1196 551q0 37 61 147l216 387h440l-260 -423l-21 -33l-17 -29q-5 -8 -9 -19.5t-4 -19.5 q0 -29 51 -104l309 -457h-444l-271 432q-51 82 -51 119z" />
<glyph unicode="&#x437;" horiz-adv-x="1189" d="M61 0v291h572q115 0 115 67q0 72 -119 72h-537v250h539q113 0 112.5 65.5t-110.5 65.5h-551v274h719q193 0 266 -65q74 -68 74 -207q0 -119 -58 -184q-63 -68 -159 -64v-8q96 4 159 -65q66 -74 66 -197q0 -158 -88 -234q-74 -61 -258 -61h-742z" />
<glyph unicode="&#x438;" horiz-adv-x="1374" d="M61 193v892h402l-21 -563q0 -31 19 -30q12 0 37 30l393 494q23 27 37 41t54 27.5t97 13.5q80 0 132.5 -24.5t72 -65.5t24.5 -68t5 -59v-881h-402l21 563q0 33 -17 33q-8 0 -36 -33l-385 -481q-47 -59 -89.5 -76.5t-113.5 -17.5q-230 0 -230 205z" />
<glyph unicode="&#x439;" horiz-adv-x="1374" d="M61 193v892h402l-21 -563q0 -31 19 -30q12 0 37 30l393 494q23 27 37 41t54 27.5t97 13.5q80 0 132.5 -24.5t72 -65.5t24.5 -68t5 -59v-881h-402l21 563q0 33 -17 33q-8 0 -36 -33l-385 -481q-47 -59 -89.5 -76.5t-113.5 -17.5q-230 0 -230 205zM223 1475h264 q14 -51 50 -89q53 -57 149 -57t150 57q35 37 49 89h264q-35 -166 -137 -258q-106 -98 -325.5 -98.5t-326.5 98.5q-102 92 -137 258z" />
<glyph unicode="&#x43a;" horiz-adv-x="1263" d="M61 0v1085h402v-1085h-402zM504 557q0 49 65 143l267 385h442l-322 -413q-59 -78 -59 -113q0 -33 47 -94l381 -465h-451l-317 436q-53 76 -53 121z" />
<glyph unicode="&#x43b;" horiz-adv-x="1372" d="M-20 0l481 1001q43 96 225 96.5t225 -96.5l482 -1001h-402l-284 700q-10 29 -20.5 29t-20.5 -29l-285 -700h-401z" />
<glyph unicode="&#x43c;" horiz-adv-x="1679" d="M61 0v891q0 100 85 153.5t204 53.5q115 0 181.5 -39t99.5 -129l170 -471q16 -47 38.5 -47t39.5 47l170 471q33 90 99 129t181 39q119 0 204 -53.5t85 -153.5v-891h-401l20 586q0 25 -14 24q-12 0 -23 -28l-172 -488q-23 -63 -70 -84.5t-118.5 -21.5t-118.5 21.5t-70 84.5 l-172 486q-10 29 -22 28q-14 0 -15 -24l21 -584h-402z" />
<glyph unicode="&#x43d;" horiz-adv-x="1282" d="M61 0v1085h402v-380h356v380h402v-1085h-402v414h-356v-414h-402z" />
<glyph unicode="&#x43e;" horiz-adv-x="1327" d="M37 542.5q0 315.5 143 444.5q80 70 198 90.5t286 20.5q109 0 179 -5.5t159.5 -31t144.5 -74.5q143 -129 143 -444.5t-143 -444.5q-80 -70 -198 -90t-285 -20q-109 0 -179.5 5t-159.5 30.5t-145 74.5q-143 129 -143 444.5zM446 543q0 -137 39 -191q49 -74 179 -73 q125 0 176 73q41 57 41 191q0 139 -39 194q-53 70 -178 70t-179 -70q-39 -55 -39 -194z" />
<glyph unicode="&#x43f;" horiz-adv-x="1290" d="M61 0v877q0 96 52 149q59 59 194 59h676q135 0 195 -59q51 -53 51 -149v-877h-402v743q0 37 -20 54q-16 14 -51 14h-221q-35 0 -52 -14q-20 -16 -20 -54v-743h-402z" />
<glyph unicode="&#x440;" horiz-adv-x="1259" d="M61 -348v1227q0 115 74 168q55 39 154 38h504q205 0 313 -112q117 -121 117 -398q0 -299 -88 -425q-106 -150 -375 -150h-297v-348h-402zM463 291h176q104 0 149 84q25 47 25 170q0 109 -18 157q-37 92 -144 93h-141q-18 0 -32.5 -14.5t-14.5 -37.5v-452z" />
<glyph unicode="&#x441;" horiz-adv-x="1128" d="M37 528q0 152 22.5 259.5t98.5 185.5q106 113 327 112h584v-274h-397q-164 0 -207 -131q-18 -55 -19 -143q0 -129 33 -189q45 -74 203 -74h12h398v-274h-627q-223 0 -332 129q-57 68 -76.5 162t-19.5 237z" />
<glyph unicode="&#x442;" horiz-adv-x="1212" d="M0 799v286h1212v-286h-405v-799h-401v799h-406z" />
<glyph unicode="&#x443;" horiz-adv-x="1355" d="M-20 1085h428l276 -665l291 665h401l-649 -1435h-401l170 350z" />
<glyph unicode="&#x444;" horiz-adv-x="1859" d="M37 532.5q0 264.5 76 387.5q102 166 358 165h260v349h397v-349h261q256 0 358 -165q76 -123 76 -387.5t-90 -389.5q-102 -143 -353 -143h-252v-348h-397v348h-252q-250 0 -352 143q-90 125 -90 389.5zM438 537q0 -117 31 -170q23 -41 67 -60.5t71.5 -21.5t84.5 -2h39v520 h-43q-170 0 -219 -80q-31 -49 -31 -186zM1128 283h39q57 0 85 2t72 21.5t67 60.5q31 53 30 170q0 137 -30 186q-49 80 -220 80h-43v-520z" />
<glyph unicode="&#x445;" horiz-adv-x="1294" d="M-20 0l432 557l-398 528h457l176 -278l176 278h457l-397 -528l432 -557h-467l-201 307l-201 -307h-466z" />
<glyph unicode="&#x446;" horiz-adv-x="1372" d="M61 168v917h402v-710q0 -47 18.5 -65.5t67.5 -18.5h272v794h402v-794h170v-291h-1160q-76 0 -120 41q-52 47 -52 127z" />
<glyph unicode="&#x447;" horiz-adv-x="1282" d="M53 715v370h402v-225q0 -92 16 -119q29 -45 131 -45h217v389h402v-1085h-402v389h-493q-137 0 -215 111q-58 78 -58 215z" />
<glyph unicode="&#x448;" horiz-adv-x="1769" d="M61 193v892h398v-720q0 -37 10 -52q14 -18 45 -18h172v790h397v-790h172q31 0 45 18q10 14 11 52v720h397v-892v-13q0 -33 -1 -49t-11 -38.5t-31 -43.5q-49 -49 -154 -49h-10h-1233q-117 0 -164 49q-43 46 -43 144z" />
<glyph unicode="&#x449;" horiz-adv-x="1880" d="M61 193v892h398v-718q0 -39 8 -54q14 -18 47 -18h170v790h397v-790h228v790h397v-790h174v-295h-1612q-121 0 -166 51q-41 46 -41 142z" />
<glyph unicode="&#x44a;" horiz-adv-x="1421" d="M0 809v276h438q66 0 115 -41q66 -53 65 -153v-168h490q137 0 209 -92q68 -86 67 -297q0 -188 -84 -271q-66 -63 -194 -63h-674q-106 0 -160 55q-55 55 -55 160v514q0 37 -16 57q-18 23 -58 23h-143zM618 381q0 -49 23 -70q20 -20 64 -20h163q61 0 80 14q27 18 27 72 q0 47 -22.5 63.5t-84.5 16.5h-250v-76z" />
<glyph unicode="&#x44b;" horiz-adv-x="1830" d="M61 215v870h402v-362h489q137 0 209 -92q68 -86 68 -297q0 -188 -84 -271q-66 -63 -195 -63h-674q-106 0 -159 55q-56 56 -56 160zM463 381q0 -49 22 -70q20 -20 64 -20h164q61 0 80 14q27 18 26 72q0 47 -20 63q-33 16 -86 17h-250v-76zM1368 0v1085h401v-1085h-401z " />
<glyph unicode="&#x44c;" horiz-adv-x="1265" d="M61 215v870h402v-362h489q137 0 209 -92q68 -86 68 -297q0 -188 -84 -271q-66 -63 -195 -63h-674q-106 0 -159 55q-56 56 -56 160zM463 381q0 -49 22 -70q20 -20 64 -20h164q61 0 80 14q27 18 26 72q0 47 -20 63q-33 16 -86 17h-250v-76z" />
<glyph unicode="&#x44d;" horiz-adv-x="1136" d="M37 0v291h377q205 0 252 59q25 31 24 84h-624v254h624q-8 57 -47 86q-8 8 -18.5 13.5t-23.5 9.5l-22 7q-9 3 -26.5 5t-25 3t-29 2t-25.5 1h-27h-24h-371v270h651q193 0 293 -116q104 -121 105 -408q0 -303 -96 -428q-45 -59 -118 -91t-122 -37t-123 -5h-604z" />
<glyph unicode="&#x44e;" horiz-adv-x="1902" d="M61 0v1085h390v-399h155q6 201 121 305q55 47 146.5 73t162 30t183 4t184.5 -4t163 -30t144 -73q131 -121 131 -442q0 -326 -131 -451q-51 -49 -143 -74.5t-166 -30.5t-182 -5q-111 0 -183.5 5t-163 30.5t-145.5 74.5q-127 109 -121 334h-155v-432h-390zM999 539 q0 -133 35 -183q53 -78 184.5 -77.5t184.5 77.5q37 53 37 183q0 141 -35 194q-51 74 -186.5 74t-186.5 -74q-33 -47 -33 -194z" />
<glyph unicode="&#x44f;" horiz-adv-x="1271" d="M20 0l293 371q10 10 10.5 22.5t-26.5 12.5h-27q-92 0 -155 79q-72 92 -72 272.5t92 262.5q72 66 174 65h686q92 0 148 -47q68 -57 67 -190v-848h-401v719q0 57 -21 76q-18 16 -73 16h-180q-43 0 -66 -18q-25 -20 -25 -63.5t18.5 -60t63.5 -16.5h99q61 0 96 -29.5 t35 -82.5q0 -76 -56 -162l-249 -379h-431z" />
<glyph unicode="&#x2000;" horiz-adv-x="909" />
<glyph unicode="&#x2001;" horiz-adv-x="1818" />
<glyph unicode="&#x2002;" horiz-adv-x="909" />
<glyph unicode="&#x2003;" horiz-adv-x="1818" />
<glyph unicode="&#x2004;" horiz-adv-x="606" />
<glyph unicode="&#x2005;" horiz-adv-x="454" />
<glyph unicode="&#x2006;" horiz-adv-x="303" />
<glyph unicode="&#x2007;" horiz-adv-x="303" />
<glyph unicode="&#x2008;" horiz-adv-x="227" />
<glyph unicode="&#x2009;" horiz-adv-x="362" />
<glyph unicode="&#x200a;" horiz-adv-x="100" />
<glyph unicode="&#x2010;" d="M61 387v324h875v-324h-875z" />
<glyph unicode="&#x2011;" d="M61 387v324h875v-324h-875z" />
<glyph unicode="&#x2012;" d="M61 387v324h875v-324h-875z" />
<glyph unicode="&#x2013;" horiz-adv-x="1130" d="M61 387v324h1008v-324h-1008z" />
<glyph unicode="&#x2014;" horiz-adv-x="2103" d="M102 387v324h1899v-324h-1899z" />
<glyph unicode="&#x2018;" horiz-adv-x="714" d="M102 1442l267 157l346 -503l-299 -178z" />
<glyph unicode="&#x2019;" horiz-adv-x="714" d="M0 1075l266 -157l346 503l-299 178z" />
<glyph unicode="&#x201a;" horiz-adv-x="714" d="M0 -145l313 524l299 -178l-346 -504z" />
<glyph unicode="&#x201c;" horiz-adv-x="1265" d="M102 1438l267 157l346 -503l-299 -179zM653 1438l267 157l346 -503l-299 -179z" />
<glyph unicode="&#x201d;" horiz-adv-x="1265" d="M0 1071l313 524l299 -178l-346 -504zM551 1071l313 524l299 -178l-346 -504z" />
<glyph unicode="&#x201e;" horiz-adv-x="1265" d="M0 -145l313 524l299 -178l-346 -504zM551 -145l313 524l299 -178l-346 -504z" />
<glyph unicode="&#x2026;" horiz-adv-x="1830" d="M102 0v369h406v-369h-406zM713 0v369h405v-369h-405zM1323 0v369h406v-369h-406z" />
<glyph unicode="&#x202f;" horiz-adv-x="362" />
<glyph unicode="&#x2039;" horiz-adv-x="808" d="M102 575.5q0 92.5 54 159.5l297 387l254 -196l-199 -285q-23 -35 -23 -65.5t23 -65.5l199 -285l-254 -196l-297 387q-54 67 -54 159.5z" />
<glyph unicode="&#x203a;" horiz-adv-x="808" d="M102 225l199 285q23 35 23 65.5t-23 65.5l-199 285l254 196l297 -387q53 -68 53.5 -160t-53.5 -159l-297 -387z" />
<glyph unicode="&#x205f;" horiz-adv-x="454" />
<glyph unicode="&#x20ac;" horiz-adv-x="1400" d="M43 512l59 123h91q-4 20 -5 65q0 37 2 56h-147l59 123h99q41 279 200.5 425t468.5 146q289 0 406 -100l18 -236h-65q-43 215 -262 215q-143 0 -217 -113.5t-93 -336.5h496l-59 -123h-443v-62v-59h385l-59 -123h-320q14 -199 94 -303.5t216 -104.5q221 0 262 207h65 l-18 -227q-119 -98 -406 -98q-303 0 -459.5 133t-197.5 393h-170z" />
<glyph unicode="&#x2122;" horiz-adv-x="2187" d="M0 1237v199h860v-199h-328v-631h-202v631h-330zM922 606v715q0 59 36.5 92t141.5 33q127 0 168 -90l213 -477q14 -27 20 -27t21 27l213 477q39 90 170 90q180 0 180 -125v-715h-203v531q0 23 -16 22q-6 0 -11.5 -5t-7.5 -11l-4 -8l-198 -441q-16 -37 -23.5 -50 t-38.5 -29.5t-82 -16.5q-39 0 -56.5 3t-41 24.5t-43.5 68.5l-197 441l-4 8q-2 6 -7 11t-11 5q-16 0 -17 -22v-531h-202z" />
<glyph unicode="&#xe000;" horiz-adv-x="1085" d="M0 1085h1085v-1085h-1085v1085z" />
</font>
</defs>
</svg>
